<svg width="1121" height="577" viewBox="0 0 1121 577" fill="none" xmlns="http://www.w3.org/2000/svg">
<g clip-path="url(#clip0_2_14)">
<g filter="url(#filter0_d_2_14)">
<path d="M538 324.116C495.555 324.116 461.154 358.344 461.154 400.576C461.154 443.053 495.308 460.045 512.385 494.027H563.615C580.692 460.045 614.846 443.053 614.846 400.576C614.846 358.344 580.445 324.116 538 324.116ZM538 349.603V392.08H572.154L538 451.549V409.071H503.846L538 349.603ZM512.385 511.018V519.513C512.385 528.901 520.027 536.504 529.462 536.504C529.462 538.758 530.361 540.918 531.962 542.512C533.564 544.105 535.735 545 538 545C540.265 545 542.436 544.105 544.038 542.512C545.639 540.918 546.538 538.758 546.538 536.504C555.973 536.504 563.615 528.901 563.615 519.513V511.018H512.385Z" fill="#3F6893"/>
<path d="M734 76C729.542 76 725.923 79.6185 725.923 84.0769V85.4651C725.923 89.3259 723.204 92.7705 719.392 93.3843C717.543 93.6832 715.712 94.0293 713.902 94.4413C710.155 95.2974 706.365 93.1756 704.895 89.6298L704.358 88.3678C702.654 84.2486 697.932 82.2857 693.805 83.998C689.685 85.7023 687.723 90.4244 689.435 94.5517L689.971 95.8453C691.457 99.3991 690.269 103.606 686.99 105.642C685.407 106.627 683.862 107.659 682.352 108.734C679.218 110.971 674.883 110.462 672.161 107.74L671.183 106.762C668.025 103.604 662.912 103.604 659.762 106.762C656.612 109.92 656.612 115.033 659.762 118.183L660.74 119.161C663.462 121.883 663.971 126.21 661.734 129.352C660.659 130.862 659.627 132.407 658.642 133.99C656.606 137.269 652.391 138.465 648.829 136.987L647.552 136.451C643.432 134.746 638.695 136.701 636.982 140.82C635.278 144.94 637.233 149.662 641.352 151.374L642.614 151.895C646.16 153.365 648.297 157.155 647.441 160.902C647.029 162.712 646.667 164.543 646.369 166.392C645.763 170.196 642.326 172.923 638.465 172.923H637.077C632.618 172.923 629 176.542 629 181C629 185.458 632.618 189.077 637.077 189.077H638.465C642.326 189.077 645.77 191.796 646.384 195.608C646.683 197.457 647.029 199.288 647.441 201.098C648.297 204.845 646.176 208.635 642.63 210.105L641.368 210.642C637.249 212.346 635.286 217.068 636.998 221.195C638.702 225.315 643.424 227.277 647.552 225.565L648.845 225.029C652.407 223.551 656.614 224.739 658.657 228.01C659.643 229.593 660.667 231.145 661.749 232.664C663.987 235.798 663.477 240.133 660.756 242.855L659.762 243.833C656.604 246.991 656.604 252.104 659.762 255.254C662.92 258.404 668.033 258.412 671.183 255.254L672.177 254.276C674.899 251.554 679.218 251.029 682.352 253.266C683.87 254.349 685.422 255.389 687.006 256.374C690.277 258.409 691.481 262.624 690.003 266.186L689.466 267.464C687.762 271.583 689.717 276.321 693.836 278.034C697.955 279.738 702.678 277.783 704.39 273.664L704.91 272.402C706.38 268.856 710.17 266.718 713.918 267.575C715.727 267.986 717.558 268.348 719.408 268.647C723.196 269.237 725.923 272.674 725.923 276.535V277.923C725.923 282.382 729.542 286 734 286C738.458 286 742.077 282.382 742.077 277.923V276.535C742.077 272.674 744.796 269.23 748.608 268.616C750.457 268.317 752.288 267.971 754.098 267.559C757.845 266.703 761.635 268.824 763.105 272.37L763.642 273.632C765.346 277.751 770.068 279.714 774.195 278.002C778.315 276.298 780.277 271.576 778.565 267.448L778.029 266.155C776.551 262.593 777.739 258.386 781.01 256.343C782.593 255.357 784.145 254.333 785.664 253.251C788.798 251.013 793.133 251.523 795.855 254.244L796.833 255.238C799.991 258.396 805.104 258.396 808.254 255.238C811.404 252.08 811.412 246.967 808.254 243.817L807.276 242.823C804.554 240.101 804.029 235.782 806.266 232.648C807.349 231.13 808.389 229.578 809.374 227.994C811.409 224.723 815.624 223.519 819.186 224.997L820.464 225.534C824.583 227.238 829.321 225.283 831.034 221.164C832.738 217.045 830.783 212.322 826.664 210.61L825.402 210.09C821.856 208.62 819.718 204.83 820.575 201.082C820.986 199.273 821.348 197.442 821.647 195.592C822.237 191.804 825.674 189.077 829.535 189.077H830.923C835.382 189.077 839 185.458 839 181C839 176.542 835.382 172.923 830.923 172.923H829.535C825.674 172.923 822.23 170.204 821.616 166.392C821.317 164.543 820.971 162.712 820.559 160.902C819.703 157.155 821.824 153.365 825.37 151.895L826.632 151.358C830.751 149.654 832.714 144.932 831.002 140.805C829.298 136.685 824.576 134.723 820.448 136.435L819.155 136.971C815.593 138.449 811.386 137.261 809.343 133.99C808.357 132.407 807.333 130.855 806.251 129.336C804.013 126.202 804.523 121.867 807.244 119.145L808.238 118.167C811.396 115.009 811.396 109.896 808.238 106.746C805.08 103.588 799.967 103.588 796.817 106.746L795.839 107.74C793.117 110.462 788.782 110.987 785.648 108.749C784.13 107.667 782.578 106.627 780.994 105.642C777.723 103.606 776.535 99.3914 778.013 95.8295L778.549 94.5517C780.254 90.4325 778.299 85.6946 774.18 83.9823C770.06 82.278 765.338 84.2328 763.626 88.352L763.09 89.614C761.62 93.1598 757.83 95.2974 754.082 94.4413C752.273 94.0293 750.442 93.6674 748.592 93.3685C744.796 92.7628 742.077 89.3259 742.077 85.4651V84.0769C742.077 79.6185 738.458 76 734 76ZM734 116.385C766.943 116.385 794.081 141.059 798.063 172.923H747.961C746.546 170.472 744.511 168.435 742.061 167.017C739.61 165.6 736.831 164.851 734 164.846C733.995 164.846 733.989 164.846 733.984 164.846L708.933 121.433C716.643 118.184 725.109 116.385 734 116.385ZM694.988 129.573L720.023 172.923C718.601 175.378 717.85 178.163 717.846 181C717.856 183.826 718.606 186.6 720.023 189.045L694.972 232.412C679.452 220.609 669.385 202.001 669.385 181C669.385 159.991 679.458 141.374 694.988 129.573ZM747.977 189.077H798.063C794.081 220.941 766.943 245.615 734 245.615C725.109 245.615 716.643 243.816 708.933 240.567L733.984 197.154C733.989 197.154 733.995 197.154 734 197.154C736.833 197.152 739.616 196.404 742.07 194.986C744.523 193.569 746.56 191.531 747.977 189.077Z" fill="#3F6893"/>
<path d="M606.275 252.949C597.32 261.648 586.702 268.471 574.421 273.418C562.14 278.365 548.792 280.838 534.379 280.838C519.795 280.838 506.362 278.365 494.081 273.418C481.8 268.386 471.096 261.393 461.971 252.438C452.93 243.397 445.894 232.822 440.862 220.711C435.83 208.6 433.314 195.381 433.314 181.053C433.314 166.725 435.83 153.505 440.862 141.395C445.894 129.199 452.93 118.623 461.971 109.668C471.096 100.713 481.8 93.762 494.081 88.8154C506.362 83.7835 519.795 81.2676 534.379 81.2676C548.707 81.2676 561.969 83.7409 574.165 88.6875C586.446 93.6341 597.064 100.5 606.02 109.284L578.515 136.917C573.142 130.35 566.575 125.19 558.813 121.438C551.138 117.6 542.78 115.681 533.739 115.681C525.125 115.681 517.151 117.344 509.816 120.67C502.567 123.911 496.213 128.516 490.755 134.486C485.297 140.371 481.075 147.279 478.09 155.211C475.105 163.143 473.612 171.714 473.612 180.925C473.612 190.306 475.105 198.963 478.09 206.895C481.075 214.826 485.297 221.777 490.755 227.747C496.213 233.632 502.567 238.237 509.816 241.563C517.151 244.804 525.125 246.425 533.739 246.425C542.78 246.425 551.138 244.549 558.813 240.796C566.489 236.958 573.014 231.756 578.387 225.188L606.275 252.949ZM1043.67 277H998.38L908.701 146V277H869.299V85.1055H914.586L1004.26 216.361V85.1055H1043.67V277Z" fill="#3F6893"/>
<path d="M344.093 490V341.318H437.068V367.982H374.622V401.782H433.004V428.545H374.622V490H344.093ZM518.149 491.982C514.185 491.982 510.947 490.76 508.436 488.315C505.991 485.804 504.768 482.533 504.768 478.502C504.768 474.471 505.991 471.233 508.436 468.788C510.947 466.277 514.185 465.021 518.149 465.021C522.18 465.021 525.451 466.277 527.962 468.788C530.473 471.233 531.729 474.471 531.729 478.502C531.729 482.533 530.473 485.804 527.962 488.315C525.451 490.76 522.18 491.982 518.149 491.982ZM770.313 490H736.513L705.29 436.276H676.941V490H646.412V341.318H706.678C718.638 341.318 728.881 343.202 737.405 346.968C745.93 350.735 752.439 356.187 756.932 363.323C761.492 370.394 763.771 378.885 763.771 388.797C763.771 398.974 761.36 407.663 756.536 414.866C751.778 422.003 744.972 427.355 736.117 430.924L770.313 490ZM676.941 411.992H704.398C713.451 411.992 720.389 410.108 725.213 406.342C730.103 402.509 732.548 397.057 732.548 389.987C732.548 382.916 730.103 377.498 725.213 373.731C720.389 369.898 713.451 367.982 704.398 367.982H676.941V411.992ZM894.017 378.687C889.655 374.326 884.435 370.956 878.355 368.577C872.342 366.198 865.899 365.008 859.027 365.008C852.154 365.008 845.877 366.198 840.194 368.577C834.511 370.956 829.621 374.359 825.524 378.786C821.427 383.214 818.255 388.5 816.008 394.646C813.762 400.725 812.638 407.531 812.638 415.064C812.638 422.598 813.762 429.503 816.008 435.781C818.321 442.058 821.559 447.477 825.722 452.037C829.951 456.53 834.94 460.032 840.689 462.543C846.505 465.055 852.914 466.31 859.919 466.31C865.734 466.31 871.054 465.418 875.877 463.634C880.767 461.85 885.063 459.306 888.763 456.001C892.464 452.697 895.503 448.7 897.882 444.008C900.327 439.316 902.012 434.063 902.938 428.248H859.82V404.954H929.799L930.691 416.452C930.691 427.752 928.94 438.094 925.438 447.477C922.002 456.861 917.112 464.955 910.768 471.762C904.424 478.502 896.858 483.722 888.069 487.423C879.347 491.123 869.666 492.974 859.027 492.974C847.991 492.974 837.749 491.024 828.299 487.125C818.916 483.227 810.689 477.775 803.618 470.771C796.614 463.766 791.162 455.572 787.263 446.188C783.364 436.739 781.415 426.529 781.415 415.56C781.415 404.591 783.331 394.447 787.164 385.13C791.063 375.746 796.481 367.552 803.42 360.548C810.424 353.543 818.585 348.092 827.903 344.193C837.22 340.294 847.364 338.345 858.333 338.345C868.576 338.345 878.488 340.129 888.069 343.697C897.651 347.266 906.208 352.354 913.742 358.962L894.017 378.687ZM949.723 490V341.318H1045.67V367.982H980.252V401.782H1041.61V428.545H980.252V463.336H1046.66V490H949.723Z" fill="#3F6893"/>
<path d="M395.03 93.8134H346.52C348.317 90.4664 355.914 83.7723 371.93 83.7723C387.946 83.7723 394.003 90.4664 395.03 93.8134Z" fill="#3F6893"/>
<path d="M387.33 261.422H352.68L368.85 288.455L387.33 261.422Z" fill="#3F6893"/>
<g clip-path="url(#clip1_2_14)">
<path d="M397.037 144.73L342.59 144.73L342.59 247.504L369.814 274.812L397.037 247.504V144.73ZM342.59 108.615L342.59 123.157L397.037 123.157L397.037 108.615C397.037 93.5273 384.855 81.307 369.814 81.307C354.779 81.3138 342.59 93.541 342.59 108.615Z" fill="#3F6893"/>
</g>
</g>
<path d="M188.128 379.138C173.408 429.201 181.994 480.572 188.128 500C277.92 500 294.081 415.949 286.262 388.341C266.022 316.875 268.475 298.563 266.022 273C254.982 299.381 206.528 316.559 188.128 379.138Z" fill="url(#paint0_linear_2_14)"/>
<path d="M34.1254 296.191C34.1253 155.913 147.26 163.285 161.886 28.7384C372.614 206.291 242.845 267.728 204.891 318.721C157.312 382.646 178.128 410.451 169.258 434.837C155.305 405.361 34.1254 366.494 34.1254 296.191Z" fill="url(#paint1_linear_2_14)"/>
</g>
<defs>
<filter id="filter0_d_2_14" x="284" y="17" width="869" height="582" filterUnits="userSpaceOnUse" color-interpolation-filters="sRGB">
<feFlood flood-opacity="0" result="BackgroundImageFix"/>
<feColorMatrix in="SourceAlpha" type="matrix" values="0 0 0 0 0 0 0 0 0 0 0 0 0 0 0 0 0 0 127 0" result="hardAlpha"/>
<feOffset dx="18" dy="20"/>
<feGaussianBlur stdDeviation="11"/>
<feComposite in2="hardAlpha" operator="out"/>
<feColorMatrix type="matrix" values="0 0 0 0 0.195361 0 0 0 0 0.315977 0 0 0 0 0.4969 0 0 0 0.15 0"/>
<feBlend mode="normal" in2="BackgroundImageFix" result="effect1_dropShadow_2_14"/>
<feBlend mode="normal" in="SourceGraphic" in2="effect1_dropShadow_2_14" result="shape"/>
</filter>
<linearGradient id="paint0_linear_2_14" x1="234" y1="273" x2="234" y2="500" gradientUnits="userSpaceOnUse">
<stop stop-color="#3B4550"/>
<stop offset="1" stop-color="#3F6893"/>
</linearGradient>
<linearGradient id="paint1_linear_2_14" x1="195.236" y1="34.9578" x2="122.297" y2="426.079" gradientUnits="userSpaceOnUse">
<stop stop-color="#E28246"/>
<stop offset="1" stop-color="#C4EB3A"/>
</linearGradient>
<clipPath id="clip0_2_14">
<rect width="1121" height="577" fill="white"/>
</clipPath>
<clipPath id="clip1_2_14">
<rect width="154" height="154.478" fill="white" transform="translate(288 99.9926)"/>
</clipPath>
</defs>
</svg>
