<svg width="161" height="154" viewBox="0 0 161 154" fill="none" xmlns="http://www.w3.org/2000/svg">
<path d="M157.546 91.4067L157.377 91.2805L146.035 83.0565C145.317 82.5311 144.744 81.8557 144.363 81.0857C143.982 80.3157 143.804 79.4731 143.843 78.6271V74.7859C143.807 73.9453 143.988 73.1088 144.369 72.3451C144.751 71.5815 145.323 70.9125 146.039 70.3931L157.377 62.1658L157.546 62.0395C159.295 60.6927 160.468 58.8146 160.857 56.7412C161.245 54.6677 160.823 52.5342 159.666 50.722L144.318 26.1662C144.3 26.143 144.284 26.1186 144.271 26.0931C143.108 24.306 141.305 22.9519 139.174 22.266C137.044 21.5801 134.721 21.6057 132.609 22.3383L132.483 22.3815L119.151 27.3425C118.309 27.6571 117.399 27.7823 116.495 27.7078C115.591 27.6332 114.719 27.3611 113.95 26.9139C112.772 26.2271 111.574 25.5781 110.357 24.9667C109.568 24.571 108.89 24.0094 108.379 23.3272C107.868 22.645 107.537 21.8612 107.413 21.0391L105.405 7.88398L105.361 7.64474C104.924 5.60717 103.742 3.77088 102.013 2.44448C100.283 1.11808 98.1133 0.3824 95.8668 0.361084H65.1331C62.8549 0.367824 60.6524 1.11775 58.9135 2.47874C57.1747 3.83973 56.011 5.72447 55.6277 7.80091L55.5953 7.98699L53.5936 21.1687C53.4708 21.9884 53.1428 22.7704 52.6355 23.4522C52.1283 24.1341 51.4559 24.697 50.6719 25.0963C49.4513 25.7041 48.2527 26.3491 47.0782 27.0302C46.3115 27.4747 45.4417 27.7447 44.5402 27.8181C43.6387 27.8915 42.7313 27.766 41.8924 27.4522L28.5489 22.4679L28.4231 22.4214C26.308 21.6879 23.9818 21.6633 21.8491 22.3518C19.7165 23.0402 17.9123 24.3982 16.7506 26.1895L16.7039 26.2626L1.33345 50.8349C0.174937 52.649 -0.247901 54.7849 0.14055 56.8608C0.529 58.9367 1.70341 60.8171 3.45376 62.1658L3.62267 62.2921L14.9645 70.5161C15.6828 71.0414 16.256 71.7169 16.6371 72.4868C17.0181 73.2568 17.1962 74.0994 17.1567 74.9454V78.7866C17.1927 79.6272 17.0124 80.4637 16.6307 81.2274C16.249 81.991 15.6767 82.66 14.9609 83.1794L3.62267 91.4067L3.45376 91.533C1.70514 92.8799 0.531687 94.7579 0.143238 96.8314C-0.245211 98.9048 0.176674 101.038 1.33345 102.851L16.6823 127.406C16.7 127.429 16.7156 127.454 16.729 127.479C17.8921 129.267 19.6953 130.621 21.8256 131.307C23.9559 131.992 26.2787 131.967 28.3907 131.234L28.5165 131.191L41.8385 126.23C42.68 125.915 43.5903 125.79 44.4945 125.865C45.3986 125.939 46.2706 126.211 47.0386 126.659C48.2174 127.348 49.4153 127.997 50.6324 128.606C51.4215 129.002 52.099 129.563 52.6102 130.245C53.1215 130.928 53.4522 131.711 53.5757 132.533L55.5738 145.689L55.6169 145.928C56.055 147.969 57.2407 149.808 58.9742 151.134C60.7077 152.461 62.8829 153.195 65.1331 153.211H95.8668C98.145 153.205 100.348 152.455 102.086 151.094C103.825 149.733 104.989 147.848 105.372 145.772L105.405 145.586L107.406 132.404C107.531 131.583 107.862 130.8 108.372 130.118C108.883 129.436 109.559 128.874 110.346 128.476C111.575 127.865 112.775 127.217 113.94 126.542C114.706 126.098 115.576 125.828 116.478 125.754C117.379 125.681 118.287 125.806 119.125 126.12L132.469 131.088L132.595 131.135C134.71 131.869 137.036 131.895 139.169 131.206C141.303 130.517 143.107 129.159 144.267 127.366C144.282 127.341 144.297 127.317 144.314 127.293L159.663 102.741C160.823 100.927 161.248 98.7905 160.86 96.7137C160.472 94.6369 159.297 92.7557 157.546 91.4067ZM109.218 78.0357C108.956 83.1813 107.083 88.1458 103.826 92.3255C100.57 96.5051 96.0696 99.7198 90.8736 101.579C85.6776 103.438 80.0095 103.86 74.5584 102.796C69.1073 101.731 64.1082 99.2254 60.1689 95.5826C56.2296 91.9399 53.5199 87.3173 52.3692 82.277C51.2186 77.2367 51.6767 71.9958 53.6877 67.1918C55.6987 62.3877 59.176 58.2274 63.6968 55.2168C68.2176 52.2061 73.5871 50.4749 79.1523 50.2335C83.1477 50.0709 87.136 50.6787 90.8635 52.0184C94.5911 53.3581 97.9763 55.4003 100.804 58.0152C103.632 60.63 105.84 63.7604 107.289 67.2071C108.737 70.6538 109.394 74.3415 109.218 78.0357Z" fill="#D98B17"/>
</svg>
